<?xml version="1.0" encoding="utf-8"?>
<!-- Generator: Adobe Illustrator 22.0.0, SVG Export Plug-In . SVG Version: 6.00 Build 0)  -->
<svg version="1.1" id="svg3248" xmlns:svg="http://www.w3.org/2000/svg"
	 xmlns="http://www.w3.org/2000/svg" xmlns:xlink="http://www.w3.org/1999/xlink" x="0px" y="0px" viewBox="0 0 262.7 55.6"
	 style="enable-background:new 0 0 262.7 55.6;" xml:space="preserve">
<style type="text/css">
	.st0{fill:#EF2E31;}
</style>
<g id="layer1" transform="translate(-34.348036,-244.58593)">
	<path id="path2438" class="st0" d="M38.9,244.6c-2.5,0-4.5,2-4.5,4.5v46.5c0,2.5,2,4.5,4.5,4.5c2.5,0,4.5-2,4.5-4.5v-46.5
		C43.4,246.6,41.4,244.6,38.9,244.6z M57,244.6c-2.5,0-4.5,2-4.5,4.5v46.5c0,2.5,2,4.5,4.5,4.5c2.5,0,4.5-2,4.5-4.5v-46.5
		C61.5,246.6,59.5,244.6,57,244.6z"/>
	<path id="path2450" class="st0" d="M248.5,252v40.3h8.1V252H248.5z M194.5,252.1v40.3h8.1v-40.3H194.5z M205.6,252.1v40.3h8.1
		v-40.3H205.6z M81.6,252.2c-2,0-3.8,0.5-5.2,2c-1.1,1.4-1.3,2.9-1.3,4.6v33.7H84v-13.7h17.3c2.5,0,4.8-0.7,6.7-2.3
		c2.1-2,2.8-4.7,3.2-7.5c0.2-2.4,0.3-4.8,0-7.2c-0.2-1.9-0.7-3.6-1.6-5.2c-2.1-3.4-5.5-4.3-9.2-4.3H100H81.6z M292.2,256.9
		c-0.3,0-0.6,0.3-0.6,0.6v3.8h0.9V258c0-0.1,0,0,0,0v0l1.1,2.9c0.1,0.4,0.3,0.6,0.7,0.6c0.4,0,0.5-0.2,0.6-0.6l1.1-2.9
		c0,0,0.1-0.2,0.1,0v3.4h0.9v-3.8c0-0.4-0.3-0.6-0.7-0.6c-0.5,0-0.7,0.2-0.9,0.6l-1.1,2.9c-0.1,0.1-0.1,0.1-0.1,0l-1.1-2.9
		c0-0.1-0.1-0.2-0.2-0.3C292.8,256.9,292.5,256.9,292.2,256.9z M287.1,257v0.8h1.7v3.7h0.9v-3.7h1.7V257H287.1z M85.4,259.6h11.8
		c2.8,0,4.4,0.7,4.9,3.5c0.3,1.8,0.3,3.8-0.2,5.6c-0.7,2.5-2.7,2.7-4.9,2.7H84v-10.2c0-0.4,0-0.9,0.3-1.2
		C84.6,259.6,85,259.6,85.4,259.6z M231.2,261.4c-4.2,0-8.6,0.4-11.8,3.5c-3,3.2-3.1,7.6-3.2,11.8c0,2,0,4,0.3,6
		c0.3,2.3,1,4.5,2.5,6.3c1.7,1.9,3.6,2.8,6.1,3.2c1,0.1,2,0.2,3,0.2h17.1v-6.6H230l-0.9,0c-1.9-0.1-3.3-0.5-4.1-2.4
		c-0.4-1.1-0.4-2.3-0.5-3.5h16.2c2.3,0,4-1,4.9-3.2c0.4-1.3,0.5-2.8,0.5-4.1c-0.1-3.3-1-6.3-3.6-8.5
		C239.3,261.5,235.2,261.4,231.2,261.4z M156.5,261.5c-3.7,0-7.1,0.6-9.8,3.2c-2.3,2.5-2.8,5.4-2.8,8.7v19.1h8.1v-17.3
		c0-1.7,0.1-3.3,1-4.8c1.2-1.8,3.2-2.2,5.2-2.2h5.1v-6.6H156.5z M165.1,261.5v6.6h15.2c0.9,0,1.7,0.2,2.4,0.8
		c0.6,0.7,0.8,1.5,0.8,2.4v1.2h-11.9c-1.7,0-3.2,0.3-4.7,1.1c-3.2,2-3.9,5-3.9,8.6c0,3.6,0.6,7.4,3.9,9.3c1.5,0.8,3,0.9,4.7,0.9h14
		c3.9,0,6-1.8,6-5.7v-15.2c0-2.2-0.4-4.2-1.4-6.2c-1.7-2.7-4.6-3.7-7.6-3.8H165.1z M268.3,261.5c-4.5,0-8,1.3-9,6.1
		c-0.5,2.9-0.1,6.1,1.9,8.4c1.7,1.7,4,2.5,6.3,3.2l5.6,1.6c1.4,0.4,2.8,0.8,4.2,1.3c0.4,0.2,0.9,0.4,1.1,0.8
		c0.3,0.6,0.4,1.7,0.1,2.3c-0.3,0.6-1,0.8-1.7,0.8h-17.3v6.6h19.6c5.2,0,8-3.1,7.9-8.2c0-2.8-0.9-5.4-3.4-7.1
		c-1.9-1.2-4-1.8-6.2-2.4l-6.3-1.8c-1.1-0.3-2.4-0.7-3.4-1.3c-0.6-0.5-0.6-0.9-0.6-1.6c0-1.4,0.6-1.8,2.3-1.8h16.3v-6.6H268.3z
		 M114.3,261.6v6.6h15.2c0.9,0,1.7,0.2,2.4,0.8c0.6,0.7,0.8,1.5,0.8,2.4v1.2h-11.9c-1.7,0-3.2,0.3-4.7,1.1c-3.2,2-3.9,5-3.9,8.6
		c0,3.6,0.6,7.4,3.9,9.3c1.5,0.8,3,0.9,4.7,0.9h14c3.9,0,6-1.8,6-5.7v-15.2c0-2.2-0.4-4.2-1.4-6.2c-1.7-2.7-4.6-3.7-7.6-3.8H114.3z
		 M231.2,268c3,0,6.2,0.6,6.6,4.2c0,0.7,0.1,1.1-0.7,1.2h-12.5c0-1.4,0.2-2.7,1.2-3.8C227,268.3,229,268,231.2,268z M173.5,279.1h10
		v5.9c0,0.8-0.5,0.8-1.1,0.8h-9c-1.9-0.1-2.2-1.8-2.2-3.3C171.3,280.7,171.4,279.2,173.5,279.1z M122.8,279.2h9.9v5.9
		c0,0.8-0.5,0.8-1.1,0.8h-9c-1.9-0.1-2.2-1.8-2.2-3.3C120.5,280.8,120.7,279.3,122.8,279.2z"/>
</g>
</svg>
